<?xml version="1.0" encoding="utf-8"?>
<!-- Generator: Adobe Illustrator 21.0.0, SVG Export Plug-In . SVG Version: 6.00 Build 0)  -->
<svg version="1.1" id="Layer_1" xmlns="http://www.w3.org/2000/svg" xmlns:xlink="http://www.w3.org/1999/xlink" x="0px" y="0px"
	 viewBox="0 0 41.7 25" style="enable-background:new 0 0 41.7 25;" xml:space="preserve">
<style type="text/css">
	.st0{fill:url(#Rectangle_1_copy_2_1_);}
</style>
<linearGradient id="Rectangle_1_copy_2_1_" gradientUnits="userSpaceOnUse" x1="0" y1="12.5" x2="41.7" y2="12.5">
	<stop  offset="5.620994e-02" style="stop-color:#005596"/>
	<stop  offset="1" style="stop-color:#2C60F9"/>
</linearGradient>
<path id="Rectangle_1_copy_2" class="st0" d="M41.7,12.5c0,1.4-1.1,2.5-2.5,2.5H17.5c-1.4,0-2.5-1.1-2.5-2.5s1.1-2.5,2.5-2.5h21.7
	C40.5,10,41.7,11.1,41.7,12.5z M41.7,2.5c0,1.4-1.1,2.5-2.5,2.5H2.5C1.1,5,0,3.9,0,2.5S1.1,0,2.5,0h36.7C40.5,0,41.7,1.1,41.7,2.5z
	 M41.7,22.5c0,1.4-1.1,2.5-2.5,2.5H10.8c-1.4,0-2.5-1.1-2.5-2.5S9.5,20,10.8,20h28.3C40.5,20,41.7,21.1,41.7,22.5z"/>
</svg>
