<?xml version="1.0" encoding="utf-8"?>
<!-- Generator: Adobe Illustrator 21.0.0, SVG Export Plug-In . SVG Version: 6.00 Build 0)  -->
<svg version="1.1" id="Layer_1" xmlns="http://www.w3.org/2000/svg" xmlns:xlink="http://www.w3.org/1999/xlink" x="0px" y="0px"
	 viewBox="0 0 201 48" style="enable-background:new 0 0 201 48;" xml:space="preserve">
<style type="text/css">
	.st0{fill:#484DA1;}
	.st1{fill:#8595A5;}
	.st2{fill:#010101;}
	.st3{fill:#FFFFFF;}
</style>
<g>
	<path class="st0" d="M7.5,33H6.9c-2.3,0-4-0.3-4.9-1c-0.9-0.6-1.2-1.7-1-3.1l2.5-13.7c0.1-0.7,0.5-1.1,1.3-1.1h1.5
		c0.3,0,0.6,0.1,0.8,0.3c0.2,0.2,0.2,0.5,0.2,0.9l-0.5,3c0,0.1,0,0.2,0.1,0.3c0.1,0.1,0.2,0.1,0.4,0.1c0.7-0.1,1.4-0.2,2.1-0.2h0.4
		c2.3,0,3.9,0.5,4.8,1.5c0.9,1,1.1,2.8,0.7,5.3l-0.1,0.7c-0.5,2.7-1.2,4.5-2.3,5.5S9.9,33,7.5,33z M5.5,29.6
		c0.4,0.1,1.1,0.2,1.8,0.2h0.3c1.2,0,2-0.2,2.5-0.7c0.5-0.5,0.8-1.5,1.1-2.9l0.1-0.6c0.3-1.4,0.2-2.4-0.1-2.9
		c-0.3-0.5-1.1-0.7-2.3-0.7H8.6c-0.5,0-1.2,0.1-2,0.3c-0.5,0.1-0.8,0.5-0.9,1.1L4.9,28c-0.1,0.4-0.1,0.8,0,1
		C5,29.3,5.2,29.5,5.5,29.6z"/>
	<path class="st0" d="M18.1,32.9h-1.5c-0.3,0-0.5-0.1-0.7-0.3c-0.2-0.2-0.2-0.5-0.2-0.8l1.7-9.8c0.2-1.2,0.5-1.9,0.9-2.3
		c0.4-0.4,1-0.7,2-0.9c0.8-0.2,1.7-0.3,2.6-0.3h0.2c1.3,0,2.2,0.1,2.8,0.2c0.8,0.2,1.1,0.6,1,1.3l-0.2,1c-0.1,0.7-0.5,1-1.3,1
		c-0.1,0-0.5-0.1-1-0.2c-0.5-0.1-1-0.2-1.5-0.2h-0.1c-0.3,0-0.7,0-1.2,0.1c-0.3,0.1-0.5,0.2-0.6,0.3c-0.1,0.2-0.2,0.4-0.3,0.7
		l-1.5,8.7c-0.1,0.3-0.2,0.6-0.4,0.8C18.7,32.8,18.4,32.9,18.1,32.9z"/>
	<path class="st0" d="M33.9,18.6c2.3,0,3.9,0.5,4.8,1.5c0.9,1,1.1,2.8,0.7,5.4l-0.1,0.7c-0.5,2.7-1.2,4.5-2.3,5.5
		c-1.1,0.9-2.7,1.4-5.1,1.4h-0.5c-2.3,0-3.9-0.5-4.8-1.5c-0.9-1-1.1-2.8-0.7-5.4l0.1-0.7c0.5-2.7,1.2-4.5,2.3-5.5
		c1.1-0.9,2.7-1.4,5.1-1.4H33.9z M35.6,22.6c-0.3-0.5-1-0.7-2.1-0.7h-0.2c-1.1,0-2,0.2-2.4,0.7c-0.5,0.5-0.8,1.4-1.1,2.9l-0.1,0.6
		c-0.3,1.4-0.2,2.4,0.1,2.9c0.3,0.5,1,0.7,2.1,0.7H32c1.1,0,2-0.2,2.4-0.7c0.5-0.5,0.9-1.4,1.1-2.9l0.1-0.6
		C35.9,24.1,35.9,23.1,35.6,22.6z"/>
	<path class="st0" d="M42,32.9h-1.4c-0.4,0-0.6-0.1-0.8-0.3c-0.2-0.2-0.2-0.5-0.2-0.9l2.9-16.4c0.1-0.7,0.6-1.1,1.3-1.1h1.5
		c0.3,0,0.6,0.1,0.8,0.3c0.2,0.2,0.2,0.5,0.2,0.9l-1.4,7.7c0,0.2,0,0.3,0,0.4c0.1,0.1,0.2,0.1,0.3,0.1h0.9c0.3,0,0.6-0.1,0.8-0.4
		l2.7-3c0.4-0.5,0.8-0.9,1-1.1c0.3-0.2,0.6-0.3,1-0.3h1.8c0.5,0,0.7,0.2,0.8,0.6c0.1,0.4-0.1,0.8-0.4,1.2l-3.9,4
		c-0.3,0.3-0.4,0.6-0.5,0.8c0,0.2,0.1,0.5,0.3,1l2.5,5c0.2,0.4,0.2,0.8,0.1,1.1c-0.2,0.3-0.4,0.5-0.8,0.5h-1.8
		c-0.7,0-1.3-0.4-1.6-1.3l-1.9-4.1c-0.1-0.4-0.4-0.5-0.8-0.5h-0.9c-0.3,0-0.5,0.2-0.6,0.5l-0.8,4.4C43.1,32.5,42.7,32.9,42,32.9z"/>
	<path class="st0" d="M58.6,33c-2.4,0-4-0.5-4.9-1.6c-0.8-1.1-1-2.8-0.6-5.4l0.1-0.7c0.5-2.6,1.3-4.4,2.3-5.4
		c1.1-0.9,2.8-1.4,5.1-1.4h0.3c2.4,0,4,0.4,4.9,1.2c0.9,0.8,1.1,2.3,0.8,4.3l-0.1,0.8c-0.1,0.7-0.4,1.3-0.8,1.6s-1,0.5-1.7,0.5h-6.7
		c-0.3,0-0.5,0.2-0.5,0.5c-0.2,0.9-0.1,1.6,0.3,1.9s1,0.6,2.1,0.6h0.4c0.9,0,1.9-0.1,2.9-0.3c1-0.2,1.6-0.3,1.8-0.3
		c0.3,0,0.6,0.1,0.8,0.3c0.2,0.2,0.2,0.5,0.2,0.9l-0.2,0.8c-0.1,0.4-0.2,0.7-0.4,0.9c-0.2,0.2-0.5,0.3-0.9,0.4
		C62.1,32.9,60.6,33,59,33H58.6z M57.2,24.1c-0.1,0.3,0.1,0.5,0.4,0.5h4.8c0.3,0,0.5-0.2,0.5-0.5c0.2-1,0.1-1.7-0.2-2.1
		c-0.3-0.3-1-0.5-2.1-0.5h-0.4c-1,0-1.7,0.2-2.1,0.6S57.4,23.1,57.2,24.1z"/>
	<path class="st0" d="M68.9,32.9h-1.5c-0.3,0-0.5-0.1-0.7-0.3c-0.2-0.2-0.2-0.5-0.2-0.8l1.7-9.8c0.2-1.2,0.5-1.9,0.9-2.3
		s1-0.7,2-0.9c0.8-0.2,1.7-0.3,2.6-0.3h0.2c1.3,0,2.2,0.1,2.8,0.2c0.8,0.2,1.1,0.6,1,1.3l-0.2,1c-0.1,0.7-0.5,1-1.3,1
		c-0.1,0-0.5-0.1-1-0.2c-0.5-0.1-1-0.2-1.5-0.2h-0.1c-0.3,0-0.7,0-1.2,0.1c-0.3,0.1-0.5,0.2-0.6,0.3c-0.1,0.2-0.2,0.4-0.3,0.7
		l-1.5,8.7c-0.1,0.3-0.2,0.6-0.4,0.8C69.5,32.8,69.2,32.9,68.9,32.9z"/>
	<path class="st0" d="M90,18.6c2.3,0,3.9,0.5,4.8,1.5c0.9,1,1.1,2.8,0.7,5.4l-0.1,0.6c-0.4,2.7-1.2,4.5-2.3,5.5
		c-1.1,1-2.8,1.4-5.1,1.4h-0.5c-0.4,0-0.9,0-1.5-0.1c-0.6,0-0.9-0.1-1-0.1c-0.3-0.1-0.5,0.1-0.6,0.4l-0.5,2.8
		c-0.1,0.7-0.6,1.1-1.3,1.1h-1.4c-0.4,0-0.6-0.1-0.8-0.3c-0.2-0.2-0.2-0.5-0.2-0.9l2.4-13.3c0.2-1,0.5-1.8,0.9-2.3
		c0.4-0.6,1.1-1,2-1.3c0.9-0.3,2.1-0.4,3.7-0.4H90z M89.2,21.9c-0.8,0-1.4,0.1-1.9,0.2c-0.4,0.1-0.6,0.2-0.8,0.5
		c-0.2,0.2-0.3,0.6-0.4,1l-0.9,4.9c-0.1,0.6,0.1,0.9,0.5,1.1c0.7,0.1,1.3,0.2,2,0.2h0.3c1.2,0,2-0.2,2.5-0.7
		c0.5-0.5,0.8-1.4,1.1-2.9l0.1-0.6c0.3-1.4,0.2-2.4-0.1-2.9c-0.3-0.5-1-0.7-2.2-0.7H89.2z"/>
	<path class="st0" d="M98.8,22.5c-0.3,0-0.6-0.1-0.8-0.3c-0.2-0.2-0.2-0.5-0.2-0.9l0.2-0.8c0.1-0.7,0.6-1.2,1.4-1.4
		c1.5-0.4,3-0.6,4.6-0.6c2.4,0,3.9,0.5,4.7,1.4c0.8,0.9,0.9,2.7,0.5,5.3l-0.6,3.5c-0.3,1.6-0.9,2.6-1.8,3.3c-1,0.6-2.6,1-4.8,1h-0.7
		c-2,0-3.5-0.4-4.3-1.1c-0.9-0.7-1.2-1.9-0.9-3.4l0.1-0.5c0.2-1.3,0.8-2.3,1.7-2.8c0.9-0.6,2.2-0.8,4-0.8h0.6c0.9,0,1.8,0.1,2.7,0.2
		c0.3,0.1,0.5-0.1,0.6-0.5c0.2-0.9,0.1-1.5-0.2-1.8c-0.3-0.3-1-0.5-2-0.5c-0.8,0-1.8,0.1-2.8,0.4S99,22.5,98.8,22.5z M105,27.8
		c0.1-0.3,0.1-0.5,0-0.6c-0.1-0.1-0.3-0.2-0.5-0.3c-0.5-0.1-1.1-0.2-1.9-0.2h-0.3c-0.9,0-1.5,0.1-1.8,0.3c-0.4,0.2-0.6,0.6-0.7,1.2
		l0,0.2c-0.1,0.6,0,1.1,0.3,1.3c0.3,0.3,0.8,0.4,1.7,0.4h0.2c0.7,0,1.3,0,1.8-0.1c0.4-0.1,0.6-0.2,0.8-0.4c0.2-0.2,0.3-0.4,0.3-0.8
		L105,27.8z"/>
	<path class="st0" d="M110.3,32.9c-0.4,0-0.6-0.1-0.8-0.3s-0.2-0.5-0.2-0.9l1.8-9.9c0.1-0.9,0.4-1.5,0.8-1.9
		c0.4-0.4,0.9-0.7,1.7-0.8c1.3-0.3,2.6-0.4,3.9-0.4c2.2,0,3.8,0.5,4.7,1.3c0.9,0.9,1.1,2.5,0.7,4.8l-1.2,7c-0.1,0.7-0.6,1.1-1.3,1.1
		H119c-0.4,0-0.6-0.1-0.8-0.3c-0.2-0.2-0.2-0.5-0.2-0.9l1.1-6.5c0.2-1.3,0.2-2.1-0.1-2.6c-0.3-0.5-0.9-0.7-1.9-0.7
		c-0.5,0-1,0.1-1.7,0.2c-0.3,0-0.5,0.1-0.7,0.3c-0.1,0.2-0.2,0.4-0.3,0.8l-1.5,8.7c-0.1,0.7-0.5,1.1-1.3,1.1H110.3z"/>
	<path class="st0" d="M129.3,33c-2.3,0-3.9-0.5-4.8-1.5c-0.9-1-1.1-2.8-0.7-5.4l0.1-0.6c0.4-2.7,1.2-4.5,2.3-5.5
		c1.1-1,2.8-1.4,5.1-1.4h0.5c0.4,0,1.2,0,2.5,0.1c0.3,0.1,0.5-0.1,0.6-0.4l0.5-3.1c0.1-0.7,0.6-1.1,1.3-1.1h1.4
		c0.4,0,0.6,0.1,0.8,0.3s0.2,0.5,0.2,0.9L136.7,29c-0.2,1-0.5,1.8-0.9,2.3c-0.4,0.6-1.1,1-2,1.3c-0.9,0.3-2.1,0.4-3.7,0.4H129.3z
		 M130.2,29.7c0.7,0,1.4-0.1,1.8-0.2c0.4-0.1,0.6-0.2,0.8-0.5c0.2-0.2,0.3-0.6,0.4-1l0.9-4.9c0.1-0.6-0.1-0.9-0.6-1
		c-0.6-0.1-1.2-0.2-1.9-0.2h-0.3c-1.2,0-2,0.2-2.4,0.7c-0.5,0.5-0.8,1.5-1.1,2.9l-0.1,0.6c-0.3,1.4-0.2,2.4,0.1,2.9
		c0.3,0.5,1,0.7,2.2,0.7H130.2z"/>
	<path class="st0" d="M141.1,22.5c-0.3,0-0.6-0.1-0.8-0.3c-0.2-0.2-0.2-0.5-0.2-0.9l0.2-0.8c0.1-0.7,0.6-1.2,1.4-1.4
		c1.5-0.4,3-0.6,4.6-0.6c2.4,0,3.9,0.5,4.7,1.4c0.8,0.9,0.9,2.7,0.5,5.3l-0.6,3.5c-0.3,1.6-0.9,2.6-1.8,3.3c-1,0.6-2.6,1-4.8,1h-0.7
		c-2,0-3.5-0.4-4.3-1.1c-0.9-0.7-1.2-1.9-0.9-3.4l0.1-0.5c0.2-1.3,0.8-2.3,1.7-2.8c0.9-0.6,2.2-0.8,4-0.8h0.6c0.9,0,1.8,0.1,2.7,0.2
		c0.3,0.1,0.5-0.1,0.6-0.5c0.2-0.9,0.1-1.5-0.2-1.8c-0.3-0.3-1-0.5-2-0.5c-0.8,0-1.8,0.1-2.8,0.4C141.9,22.4,141.3,22.5,141.1,22.5z
		 M147.3,27.8c0.1-0.3,0.1-0.5,0-0.6s-0.3-0.2-0.5-0.3c-0.5-0.1-1.1-0.2-1.9-0.2h-0.3c-0.9,0-1.5,0.1-1.8,0.3
		c-0.4,0.2-0.6,0.6-0.7,1.2l0,0.2c-0.1,0.6,0,1.1,0.3,1.3c0.3,0.3,0.8,0.4,1.7,0.4h0.2c0.7,0,1.3,0,1.8-0.1c0.4-0.1,0.6-0.2,0.8-0.4
		c0.2-0.2,0.3-0.4,0.3-0.8L147.3,27.8z"/>
</g>
<g>
	<path class="st1" d="M5.7,47.9H4.3l-0.4-1.2h-2l-0.4,1.2H0l2.2-5.8h1.4L5.7,47.9z M3.5,45.7l-0.7-2.1l-0.7,2.1H3.5z"/>
	<path class="st1" d="M12.3,47.9h-1.6l-1.2-2.2H9.1v2.2H7.8v-5.7h2.1c0.6,0,1.1,0.1,1.5,0.4c0.4,0.3,0.6,0.7,0.6,1.3
		c0,1.1-0.7,1.5-1.1,1.6L12.3,47.9z M10.3,43.3c-0.2-0.1-0.4-0.2-0.7-0.2H9.1v1.5h0.5c0.3,0,0.5,0,0.7-0.2c0.2-0.1,0.3-0.3,0.3-0.6
		C10.6,43.6,10.5,43.5,10.3,43.3z"/>
	<path class="st1" d="M18.1,43.2h-1.5v4.7h-1.3v-4.7h-1.5v-1.1h4.3V43.2z"/>
	<path class="st1" d="M21.6,47.9h-1.3v-5.7h1.3V47.9z"/>
	<path class="st1" d="M27.7,43.2h-2.2v1.4h2.1v1.1h-2.1v2.2h-1.3v-5.7h3.6V43.2z"/>
	<path class="st1" d="M31.4,47.9H30v-5.7h1.3V47.9z"/>
	<path class="st1" d="M38.8,47.2c-0.3,0.3-0.9,0.8-2.1,0.8c-1.7,0-3-1.1-3-3c0-1.9,1.3-3,3-3c1.2,0,1.8,0.5,2,0.6l-0.4,1.1
		c-0.1-0.1-0.7-0.6-1.5-0.6c-1,0-1.7,0.6-1.7,1.8c0,1.1,0.8,1.8,1.7,1.8c0.7,0,1.2-0.3,1.5-0.6L38.8,47.2z"/>
	<path class="st1" d="M42.3,47.9h-1.3v-5.7h1.3V47.9z"/>
	<path class="st1" d="M50,47.9h-1.5l-0.4-1.2h-2l-0.4,1.2h-1.4l2.2-5.8h1.4L50,47.9z M47.8,45.7l-0.7-2.1l-0.7,2.1H47.8z"/>
	<path class="st1" d="M55.4,47.9H52v-5.7h1.3v4.6h2V47.9z"/>
	<path class="st1" d="M62,47.9h-1.3v-5.7H62V47.9z"/>
	<path class="st1" d="M69.8,47.9h-1.4L65.9,44c0,0,0,0.7,0,1.3v2.6h-1.3v-5.7h1.4l2.5,3.9c0,0,0-0.6,0-1.3v-2.6h1.3V47.9z"/>
	<path class="st1" d="M77.4,42.2l-2.1,5.7H74l-2.1-5.7h1.4l1.3,4l1.3-4H77.4z"/>
	<path class="st1" d="M83.2,47.9h-3.8v-5.7h3.7v1.1h-2.4v1.2H83v1.1h-2.2v1.3h2.5V47.9z"/>
	<path class="st1" d="M88.8,47.5c-0.4,0.3-0.9,0.5-1.6,0.5c-0.8,0-1.6-0.4-2-0.9l0.7-1c0.4,0.4,1.1,0.7,1.5,0.7
		c0.4,0,0.8-0.2,0.8-0.6c0-0.4-0.4-0.5-0.7-0.6c-0.3-0.1-0.7-0.2-0.9-0.3c-0.1-0.1-0.4-0.2-0.7-0.4c-0.3-0.2-0.4-0.6-0.4-1.1
		c0-0.6,0.3-1,0.6-1.3c0.3-0.3,0.8-0.5,1.5-0.5c0.7,0,1.4,0.3,1.8,0.7l-0.6,0.9c-0.3-0.3-0.8-0.6-1.3-0.6s-0.7,0.2-0.7,0.5
		c0,0.3,0.3,0.5,0.6,0.6c0.2,0.1,0.7,0.2,0.9,0.3c0.2,0.1,0.5,0.2,0.8,0.5c0.2,0.2,0.4,0.6,0.4,1.1C89.5,46.7,89.2,47.2,88.8,47.5z"
		/>
	<path class="st1" d="M95.5,43.2H94v4.7h-1.3v-4.7h-1.5v-1.1h4.3V43.2z"/>
	<path class="st1" d="M104,47.9h-1.3l-0.2-3.9h0l-1.2,3.9h-1.1L98.9,44h0l-0.2,3.9h-1.3l0.4-5.7h1.7l1.2,3.8h0l1.2-3.8h1.7L104,47.9
		z"/>
	<path class="st1" d="M110.2,47.9h-3.8v-5.7h3.7v1.1h-2.4v1.2h2.2v1.1h-2.2v1.3h2.5V47.9z"/>
	<path class="st1" d="M117.7,47.9h-1.4l-2.5-3.9c0,0,0,0.7,0,1.3v2.6h-1.3v-5.7h1.4l2.5,3.9c0,0,0-0.6,0-1.3v-2.6h1.3V47.9z"/>
	<path class="st1" d="M124.1,43.2h-1.5v4.7h-1.3v-4.7h-1.5v-1.1h4.3V43.2z"/>
	<path class="st1" d="M130.8,47.9h-1.3v-5.7h1.3V47.9z"/>
	<path class="st1" d="M138.5,47.9h-1.4l-2.5-3.9c0,0,0,0.7,0,1.3v2.6h-1.3v-5.7h1.4l2.5,3.9c0,0,0-0.6,0-1.3v-2.6h1.3V47.9z"/>
	<path class="st1" d="M145,43.2h-1.5v4.7h-1.3v-4.7h-1.5v-1.1h4.3V43.2z"/>
	<path class="st1" d="M150.8,47.9H147v-5.7h3.7v1.1h-2.4v1.2h2.2v1.1h-2.2v1.3h2.5V47.9z"/>
	<path class="st1" d="M156.5,47.9h-3.3v-5.7h1.3v4.6h2V47.9z"/>
	<path class="st1" d="M162,47.9h-3.3v-5.7h1.3v4.6h2V47.9z"/>
	<path class="st1" d="M165.5,47.9h-1.3v-5.7h1.3V47.9z"/>
	<path class="st1" d="M173.4,47c-0.3,0.3-1,1-2.6,1c-1.6,0-3-1-3-3c0-1.9,1.4-3,3-3c1.5,0,2.2,0.8,2.4,1l-0.9,0.8
		c-0.2-0.3-0.7-0.7-1.5-0.7c-0.9,0-1.6,0.7-1.6,1.8c0,1.2,0.7,1.8,1.7,1.8c0.9,0,1.2-0.4,1.2-0.4v-0.8h-1.2v-1h2.5V47z"/>
	<path class="st1" d="M179.6,47.9h-3.8v-5.7h3.7v1.1h-2.4v1.2h2.2v1.1h-2.2v1.3h2.5V47.9z"/>
	<path class="st1" d="M187.2,47.9h-1.4l-2.5-3.9c0,0,0,0.7,0,1.3v2.6H182v-5.7h1.4l2.5,3.9c0,0,0-0.6,0-1.3v-2.6h1.3V47.9z"/>
	<path class="st1" d="M194.6,47.2c-0.3,0.3-0.9,0.8-2.1,0.8c-1.7,0-3-1.1-3-3c0-1.9,1.3-3,3-3c1.2,0,1.8,0.5,2,0.6l-0.4,1.1
		c-0.1-0.1-0.7-0.6-1.5-0.6c-1,0-1.7,0.6-1.7,1.8c0,1.1,0.8,1.8,1.7,1.8c0.7,0,1.2-0.3,1.5-0.6L194.6,47.2z"/>
	<path class="st1" d="M200.5,47.9h-3.8v-5.7h3.7v1.1h-2.4v1.2h2.2v1.1h-2.2v1.3h2.5V47.9z"/>
</g>
<g>
	<path class="st2" d="M150.3,12.3l-6.1-1.7c-1.6-0.4-2.5-2.1-2-3.6l0.1-0.4c1.3-4.7,6.2-7.4,10.9-6.1l0.4,0.1c1.6,0.4,2.5,2.1,2,3.6
		l-1.7,6.1C153.5,11.8,151.9,12.7,150.3,12.3z"/>
	<path class="st2" d="M165,12.3l6.1-1.7c1.6-0.4,2.5-2.1,2-3.6l-0.1-0.4c-1.3-4.7-6.2-7.4-10.9-6.1l-0.4,0.1c-1.6,0.4-2.5,2.1-2,3.6
		l1.7,6.1C161.8,11.8,163.5,12.7,165,12.3z"/>
	<circle class="st3" cx="150.8" cy="7.3" r="1.8"/>
	<circle class="st3" cx="164.6" cy="7.3" r="1.8"/>
</g>
</svg>
