<?xml version="1.0" encoding="utf-8"?>
<!-- Generator: Adobe Illustrator 21.0.0, SVG Export Plug-In . SVG Version: 6.00 Build 0)  -->
<svg version="1.1" id="Layer_1" xmlns="http://www.w3.org/2000/svg" xmlns:xlink="http://www.w3.org/1999/xlink" x="0px" y="0px"
	 viewBox="0 0 170 52" style="enable-background:new 0 0 170 52;" xml:space="preserve">
<style type="text/css">
	.st0{fill:#3131A3;}
	.st1{fill:#8595A5;}
</style>
<g>
	<path class="st0" d="M6.8,35.1H6.2c-2.3,0-3.9-0.3-4.8-0.9c-0.9-0.6-1.2-1.7-1-3.1l2.4-13.7c0.1-0.7,0.5-1.1,1.2-1.1h1.4
		c0.3,0,0.6,0.1,0.8,0.3c0.2,0.2,0.2,0.5,0.2,0.9l-0.5,3c0,0.1,0,0.2,0.1,0.3C6,20.9,6.1,21,6.3,20.9c0.7-0.1,1.4-0.2,2-0.2h0.4
		c2.3,0,3.9,0.5,4.7,1.5c0.9,1,1.1,2.8,0.7,5.3L14,28.3c-0.5,2.7-1.2,4.5-2.2,5.4C10.7,34.6,9.1,35.1,6.8,35.1z M4.8,31.6
		c0.4,0.1,1,0.2,1.8,0.2h0.3c1.2,0,2-0.2,2.5-0.7c0.5-0.5,0.8-1.5,1.1-2.9l0.1-0.6c0.2-1.4,0.2-2.4-0.1-2.8C10.1,24.3,9.4,24,8.2,24
		H7.9c-0.5,0-1.2,0.1-2,0.3c-0.5,0.1-0.8,0.5-0.9,1.1l-0.8,4.8c-0.1,0.4-0.1,0.8,0,1C4.3,31.4,4.5,31.6,4.8,31.6z"/>
	<path class="st0" d="M17.2,35h-1.5c-0.3,0-0.5-0.1-0.7-0.3c-0.2-0.2-0.2-0.5-0.2-0.8l1.7-9.7c0.2-1.2,0.5-1.9,0.8-2.3
		c0.4-0.4,1-0.7,2-0.9c0.8-0.2,1.6-0.3,2.5-0.3h0.2c1.2,0,2.2,0.1,2.8,0.2c0.8,0.2,1.1,0.6,1,1.3l-0.2,1c-0.1,0.7-0.5,1-1.2,1
		c-0.1,0-0.5-0.1-1-0.2c-0.5-0.1-1-0.2-1.5-0.2h-0.1c-0.3,0-0.7,0-1.1,0.1c-0.3,0.1-0.5,0.2-0.6,0.3c-0.1,0.1-0.2,0.4-0.3,0.7
		l-1.5,8.7c-0.1,0.3-0.2,0.6-0.4,0.8C17.8,34.9,17.5,35,17.2,35z"/>
	<path class="st0" d="M32.7,20.8c2.3,0,3.8,0.5,4.7,1.5c0.9,1,1.1,2.8,0.7,5.4L38,28.3c-0.5,2.7-1.2,4.5-2.2,5.4
		c-1,0.9-2.7,1.4-5,1.4h-0.5c-2.3,0-3.9-0.5-4.7-1.5c-0.9-1-1.1-2.8-0.7-5.3l0.1-0.7c0.5-2.7,1.2-4.5,2.3-5.4c1-0.9,2.7-1.4,5-1.4
		H32.7z M34.4,24.8c-0.3-0.5-1-0.7-2.1-0.7h-0.2c-1.1,0-1.9,0.2-2.4,0.7c-0.5,0.5-0.8,1.4-1,2.9l-0.1,0.6c-0.3,1.4-0.2,2.4,0.1,2.9
		c0.3,0.5,1,0.7,2.1,0.7h0.2c1.1,0,1.9-0.2,2.4-0.7c0.5-0.5,0.8-1.4,1.1-2.8l0.1-0.6C34.7,26.2,34.7,25.3,34.4,24.8z"/>
	<path class="st0" d="M40.7,35h-1.4c-0.4,0-0.6-0.1-0.8-0.3c-0.2-0.2-0.2-0.5-0.2-0.9l2.8-16.3c0.1-0.7,0.6-1.1,1.3-1.1h1.4
		c0.3,0,0.6,0.1,0.8,0.3c0.2,0.2,0.2,0.5,0.2,0.9l-1.3,7.6c0,0.2,0,0.3,0,0.4c0.1,0.1,0.2,0.1,0.3,0.1h0.9c0.3,0,0.6-0.1,0.8-0.4
		l2.6-3c0.4-0.5,0.7-0.9,1-1.1c0.3-0.2,0.6-0.3,1-0.3h1.8c0.5,0,0.7,0.2,0.8,0.6c0.1,0.4-0.1,0.8-0.4,1.2l-3.8,4
		c-0.3,0.3-0.4,0.6-0.5,0.8c0,0.2,0.1,0.5,0.3,1l2.5,5c0.2,0.4,0.2,0.8,0.1,1.1S50.5,35,50.1,35h-1.7c-0.7,0-1.2-0.4-1.6-1.3
		L45,29.6c-0.1-0.4-0.4-0.5-0.8-0.5h-0.9c-0.3,0-0.5,0.2-0.6,0.5L42,33.9C41.8,34.6,41.4,35,40.7,35z"/>
	<path class="st0" d="M57.1,35.1c-2.4,0-3.9-0.5-4.8-1.6c-0.8-1-1-2.8-0.6-5.4l0.1-0.7c0.5-2.6,1.2-4.4,2.3-5.4c1-0.9,2.7-1.4,5-1.4
		h0.3c2.3,0,3.9,0.4,4.8,1.2c0.9,0.8,1.1,2.2,0.8,4.2L64.8,27c-0.1,0.7-0.4,1.2-0.8,1.5c-0.4,0.3-1,0.5-1.7,0.5h-6.6
		c-0.3,0-0.5,0.2-0.5,0.5c-0.2,0.9-0.1,1.5,0.3,1.9s1,0.6,2,0.6h0.4c0.9,0,1.8-0.1,2.9-0.3c1-0.2,1.6-0.3,1.8-0.3
		c0.3,0,0.6,0.1,0.8,0.3c0.2,0.2,0.2,0.5,0.2,0.9l-0.2,0.8c-0.1,0.4-0.2,0.7-0.4,0.9c-0.2,0.2-0.5,0.3-0.9,0.4
		c-1.4,0.3-2.8,0.5-4.4,0.5H57.1z M55.7,26.2c-0.1,0.3,0.1,0.5,0.4,0.5h4.7c0.3,0,0.5-0.2,0.5-0.5c0.2-1,0.1-1.7-0.2-2.1
		c-0.3-0.3-1-0.5-2.1-0.5h-0.4c-1,0-1.7,0.2-2.1,0.6C56.2,24.5,55.9,25.2,55.7,26.2z"/>
	<path class="st0" d="M67.1,35h-1.5c-0.3,0-0.5-0.1-0.7-0.3c-0.2-0.2-0.2-0.5-0.2-0.8l1.7-9.7c0.2-1.2,0.5-1.9,0.8-2.3
		c0.4-0.4,1-0.7,2-0.9c0.8-0.2,1.6-0.3,2.5-0.3H72c1.2,0,2.2,0.1,2.8,0.2c0.8,0.2,1.1,0.6,1,1.3l-0.2,1c-0.1,0.7-0.5,1-1.2,1
		c-0.1,0-0.5-0.1-1-0.2c-0.5-0.1-1-0.2-1.5-0.2h-0.1c-0.3,0-0.7,0-1.1,0.1c-0.3,0.1-0.5,0.2-0.6,0.3c-0.1,0.1-0.2,0.4-0.3,0.7
		l-1.5,8.7c-0.1,0.3-0.2,0.6-0.4,0.8C67.7,34.9,67.5,35,67.1,35z"/>
	<path class="st0" d="M87.9,20.8c2.3,0,3.8,0.5,4.7,1.5c0.8,1,1.1,2.8,0.6,5.4l-0.1,0.6c-0.4,2.7-1.2,4.5-2.2,5.4
		c-1.1,0.9-2.7,1.4-5,1.4h-0.4c-0.4,0-0.9,0-1.4-0.1c-0.6,0-0.9-0.1-1-0.1c-0.3-0.1-0.5,0.1-0.6,0.4L82,38.1
		c-0.1,0.7-0.6,1.1-1.2,1.1h-1.4c-0.3,0-0.6-0.1-0.8-0.3c-0.2-0.2-0.2-0.5-0.2-0.9l2.4-13.2c0.2-1,0.5-1.7,0.9-2.3
		c0.4-0.6,1.1-1,2-1.3c0.9-0.3,2.1-0.4,3.6-0.4H87.9z M87.2,24c-0.8,0-1.4,0.1-1.9,0.2c-0.4,0.1-0.6,0.2-0.8,0.5
		c-0.2,0.2-0.3,0.6-0.4,1l-0.8,4.9c-0.1,0.6,0.1,0.9,0.5,1.1c0.7,0.1,1.3,0.2,2,0.2h0.3c1.2,0,2-0.2,2.4-0.7
		c0.5-0.5,0.8-1.4,1.1-2.8l0.1-0.6c0.2-1.4,0.2-2.4-0.1-2.9c-0.3-0.5-1-0.7-2.2-0.7H87.2z"/>
	<path class="st0" d="M96.6,24.7c-0.3,0-0.6-0.1-0.8-0.3c-0.2-0.2-0.2-0.5-0.2-0.9l0.2-0.7c0.1-0.7,0.6-1.2,1.3-1.4
		c1.4-0.4,2.9-0.6,4.5-0.6c2.3,0,3.9,0.5,4.6,1.4c0.7,0.9,0.9,2.7,0.5,5.2l-0.6,3.5c-0.3,1.5-0.9,2.6-1.8,3.3
		c-0.9,0.6-2.5,0.9-4.7,0.9h-0.7c-2,0-3.4-0.4-4.2-1.1c-0.8-0.7-1.1-1.9-0.9-3.4l0.1-0.5c0.2-1.3,0.8-2.3,1.7-2.8
		c0.9-0.6,2.2-0.8,3.9-0.8h0.6c0.9,0,1.8,0.1,2.7,0.2c0.3,0.1,0.5-0.1,0.6-0.5c0.2-0.9,0.1-1.5-0.2-1.8c-0.3-0.3-1-0.5-1.9-0.5
		c-0.8,0-1.7,0.1-2.8,0.4C97.4,24.5,96.8,24.7,96.6,24.7z M102.7,29.9c0.1-0.3,0.1-0.5,0-0.6c-0.1-0.1-0.3-0.2-0.5-0.3
		c-0.5-0.1-1.1-0.2-1.9-0.2H100c-0.8,0-1.4,0.1-1.8,0.3c-0.4,0.2-0.6,0.6-0.7,1.2l0,0.2c-0.1,0.6,0,1.1,0.3,1.3
		c0.3,0.2,0.8,0.4,1.7,0.4h0.2c0.7,0,1.3,0,1.8-0.1c0.4-0.1,0.6-0.2,0.8-0.4c0.2-0.2,0.3-0.4,0.3-0.8L102.7,29.9z"/>
	<path class="st0" d="M108,35c-0.3,0-0.6-0.1-0.8-0.3c-0.2-0.2-0.2-0.5-0.2-0.9l1.7-9.9c0.1-0.9,0.4-1.5,0.7-1.9
		c0.4-0.4,0.9-0.7,1.7-0.8c1.3-0.2,2.5-0.4,3.8-0.4c2.2,0,3.7,0.4,4.6,1.3c0.9,0.9,1.1,2.5,0.7,4.8l-1.2,7c-0.1,0.7-0.6,1.1-1.3,1.1
		h-1.4c-0.3,0-0.6-0.1-0.8-0.3c-0.2-0.2-0.2-0.5-0.2-0.9l1.1-6.4c0.2-1.3,0.2-2.1-0.1-2.6c-0.3-0.5-0.9-0.7-1.8-0.7
		c-0.4,0-1,0.1-1.7,0.2c-0.3,0-0.5,0.1-0.7,0.3c-0.1,0.2-0.2,0.4-0.3,0.8l-1.5,8.7c-0.1,0.7-0.5,1.1-1.2,1.1H108z"/>
	<path class="st0" d="M126.7,35.1c-2.3,0-3.9-0.5-4.7-1.5c-0.8-1-1.1-2.8-0.7-5.4l0.1-0.6c0.4-2.7,1.2-4.5,2.3-5.4
		c1.1-0.9,2.7-1.4,5-1.4h0.5c0.4,0,1.2,0,2.5,0.1c0.3,0.1,0.5-0.1,0.6-0.4l0.5-3c0.1-0.7,0.6-1.1,1.3-1.1h1.4c0.3,0,0.6,0.1,0.8,0.3
		c0.2,0.2,0.2,0.5,0.2,0.9l-2.4,13.5c-0.2,1-0.5,1.8-0.9,2.3c-0.4,0.6-1.1,1-2,1.3c-0.9,0.3-2.1,0.4-3.6,0.4H126.7z M127.5,31.8
		c0.7,0,1.3-0.1,1.8-0.2c0.4-0.1,0.6-0.2,0.8-0.5c0.2-0.2,0.3-0.6,0.4-1l0.9-4.9c0.1-0.6-0.1-0.9-0.5-1c-0.6-0.1-1.2-0.2-1.9-0.2
		h-0.3c-1.1,0-1.9,0.2-2.4,0.7c-0.5,0.5-0.8,1.4-1,2.9l-0.1,0.6c-0.3,1.4-0.2,2.4,0.1,2.9c0.3,0.5,1,0.7,2.1,0.7H127.5z"/>
	<path class="st0" d="M138.3,24.7c-0.3,0-0.6-0.1-0.8-0.3c-0.2-0.2-0.2-0.5-0.2-0.9l0.2-0.7c0.1-0.7,0.6-1.2,1.3-1.4
		c1.4-0.4,2.9-0.6,4.5-0.6c2.3,0,3.9,0.5,4.6,1.4c0.7,0.9,0.9,2.7,0.5,5.2l-0.6,3.5c-0.3,1.5-0.9,2.6-1.8,3.3
		c-0.9,0.6-2.5,0.9-4.7,0.9h-0.7c-2,0-3.4-0.4-4.2-1.1c-0.8-0.7-1.1-1.9-0.9-3.4l0.1-0.5c0.2-1.3,0.8-2.3,1.7-2.8
		c0.9-0.6,2.2-0.8,3.9-0.8h0.6c0.9,0,1.8,0.1,2.7,0.2c0.3,0.1,0.5-0.1,0.6-0.5c0.2-0.9,0.1-1.5-0.2-1.8c-0.3-0.3-1-0.5-1.9-0.5
		c-0.8,0-1.7,0.1-2.8,0.4C139,24.5,138.4,24.7,138.3,24.7z M144.3,29.9c0.1-0.3,0.1-0.5,0-0.6c-0.1-0.1-0.3-0.2-0.5-0.3
		c-0.5-0.1-1.1-0.2-1.9-0.2h-0.3c-0.8,0-1.4,0.1-1.8,0.3c-0.4,0.2-0.6,0.6-0.7,1.2l0,0.2c-0.1,0.6,0,1.1,0.3,1.3
		c0.3,0.2,0.8,0.4,1.7,0.4h0.2c0.7,0,1.3,0,1.8-0.1c0.4-0.1,0.6-0.2,0.8-0.4c0.2-0.2,0.3-0.4,0.3-0.8L144.3,29.9z"/>
</g>
<g>
	<path class="st1" d="M1.5,49.9H0v-6.5h1.5V49.9z"/>
	<path class="st1" d="M10.2,49.9H8.6l-2.8-4.4c0,0,0,0.8,0,1.5v2.9H4.4v-6.5H6l2.8,4.4c0,0,0-0.7,0-1.4v-2.9h1.5V49.9z"/>
	<path class="st1" d="M18.6,43.4l-2.4,6.5h-1.4l-2.4-6.5H14l1.5,4.5l1.5-4.5H18.6z"/>
	<path class="st1" d="M25.1,49.9h-4.2v-6.5H25v1.2h-2.7v1.3h2.5v1.2h-2.5v1.5h2.7V49.9z"/>
	<path class="st1" d="M31.3,49.5c-0.5,0.4-1.1,0.5-1.7,0.5c-0.9,0-1.8-0.5-2.3-1l0.7-1.1c0.5,0.5,1.2,0.8,1.7,0.8
		c0.5,0,0.9-0.2,0.9-0.7c0-0.4-0.5-0.6-0.8-0.7c-0.3-0.1-0.8-0.3-1-0.4c-0.2-0.1-0.5-0.2-0.8-0.5c-0.3-0.3-0.5-0.6-0.5-1.2
		c0-0.6,0.3-1.1,0.7-1.4c0.4-0.3,0.9-0.5,1.7-0.5c0.7,0,1.6,0.4,2,0.8l-0.6,1.1c-0.4-0.4-0.9-0.7-1.4-0.7c-0.5,0-0.8,0.2-0.8,0.6
		s0.4,0.5,0.7,0.7c0.3,0.1,0.8,0.3,1,0.4c0.2,0.1,0.6,0.2,0.9,0.5c0.3,0.3,0.5,0.7,0.5,1.2C32.1,48.5,31.8,49.1,31.3,49.5z"/>
	<path class="st1" d="M38.8,44.6h-1.7v5.3h-1.5v-5.3H34v-1.2h4.8V44.6z"/>
	<path class="st1" d="M42.6,49.9h-1.5v-6.5h1.5V49.9z"/>
	<path class="st1" d="M51.3,49.9h-1.5l-2.8-4.4c0,0,0,0.8,0,1.5v2.9h-1.5v-6.5h1.6l2.8,4.4c0,0,0-0.7,0-1.4v-2.9h1.5V49.9z"/>
	<path class="st1" d="M60,48.9C59.7,49.2,59,50,57.2,50c-1.8,0-3.3-1.2-3.3-3.3c0-2.2,1.6-3.3,3.4-3.3c1.7,0,2.4,0.9,2.6,1.1l-1,0.9
		c-0.3-0.3-0.8-0.7-1.6-0.7c-1,0-1.8,0.8-1.8,2.1c0,1.3,0.8,2.1,1.9,2.1c1,0,1.3-0.4,1.3-0.4v-1h-1.3v-1.2H60V48.9z"/>
	<path class="st1" d="M71.7,49.1c-0.3,0.3-1,0.9-2.3,0.9c-1.9,0-3.4-1.3-3.4-3.3c0-2.1,1.5-3.3,3.4-3.3c1.3,0,2,0.6,2.2,0.7
		l-0.5,1.3c-0.1-0.2-0.8-0.7-1.7-0.7c-1.1,0-1.9,0.7-1.9,2c0,1.3,0.9,2,1.9,2c0.8,0,1.4-0.3,1.7-0.7L71.7,49.1z"/>
	<path class="st1" d="M77.8,49.9h-3.7v-6.5h1.5v5.2h2.2V49.9z"/>
	<path class="st1" d="M85.3,47.2c0,0.9-0.2,1.5-0.6,2c-0.4,0.5-1.1,0.8-2.1,0.8c-0.9,0-1.6-0.3-2.1-0.8c-0.4-0.5-0.6-1.1-0.6-2v-3.8
		h1.5v3.8c0,0.5,0,0.8,0.3,1.1c0.2,0.2,0.5,0.4,0.9,0.4c0.4,0,0.7-0.2,0.9-0.4c0.2-0.3,0.3-0.6,0.3-1.1v-3.8h1.5V47.2z"/>
	<path class="st1" d="M92.4,49.5c-0.4,0.3-1,0.4-1.6,0.4h-2.6v-6.5h2.2c0.6,0,1.2,0,1.6,0.3c0.4,0.2,0.8,0.6,0.8,1.4
		s-0.5,1.3-0.9,1.4v0c0.8,0.2,1.3,0.7,1.3,1.5C93.2,48.7,92.9,49.2,92.4,49.5z M91,44.7c-0.2-0.1-0.3-0.1-0.7-0.1h-0.6V46h0.6
		c0.3,0,0.5,0,0.7-0.1c0.2-0.1,0.3-0.3,0.3-0.6C91.3,45,91.2,44.8,91,44.7z M91.3,47.3c-0.2-0.2-0.5-0.2-0.8-0.2h-0.8v1.7h0.8
		c0.3,0,0.6,0,0.8-0.2c0.2-0.1,0.3-0.4,0.3-0.6C91.6,47.6,91.5,47.4,91.3,47.3z"/>
</g>
<g>
	<path d="M151,2.8L149,2.3c-4-1.1-8.2,1.2-9.3,5.3l-0.5,2c-0.4,1.3,0.4,2.7,1.7,3.1l6.8,1.9c1.3,0.4,2.7-0.4,3.1-1.7l1.9-6.8
		C153.1,4.6,152.3,3.2,151,2.8z M147.7,11.4c-1,0-1.8-0.8-1.8-1.8c0-1,0.8-1.8,1.8-1.8c1,0,1.8,0.8,1.8,1.8
		C149.5,10.5,148.7,11.4,147.7,11.4z"/>
	<path d="M169.9,9.5l-0.5-2c-1.1-4-5.3-6.4-9.3-5.3l-1.9,0.6c-1.3,0.4-2.1,1.8-1.7,3.1l1.9,6.8c0.4,1.3,1.8,2.1,3.1,1.7l6.8-1.9
		C169.5,12.2,170.3,10.8,169.9,9.5z M161.3,11.4c-1,0-1.8-0.8-1.8-1.8c0-1,0.8-1.8,1.8-1.8c1,0,1.8,0.8,1.8,1.8
		C163.1,10.5,162.3,11.4,161.3,11.4z"/>
</g>
</svg>
